# xmcd CD database file
#
# Track frame offsets:
#	183
#	16470
#	32083
#	46683
#	59808
#	75220
#	90858
#	101045
#	116795
#	131595
#	146608
#	162670
#	177220
#	192708
#	207695
#
# Disc length: 2970 seconds
#
# Revision: 0
# Processed by: cddbd v1.4PL0 Copyright (c) Steve Scherf et al.
# Submitted via: CDex 1.50
#
DISCID=d50b980f
DTITLE=Glenn Miller - Greatest Jazz
DYEAR=1900
DGENRE=Jazz
TTITLE0=In The Mood
TTITLE1=Sunrise Serenade
TTITLE2=A String Of Pearls
TTITLE3=Little Brown Jug
TTITLE4=Stardust
TTITLE5=Tuxedo Junction
TTITLE6=Danny Boy
TTITLE7=Song Of Volga Boatman
TTITLE8=Pennsylvania 6-5000
TTITLE9=American Patrol
TTITLE10=St.Luis Blue March
TTITLE11=Don't Sit Under The Apple Tree
TTITLE12=Chattanooga Choo-Choo
TTITLE13=I've Got A Gal In Kalamazoo
TTITLE14=Moonlight Serenade
EXTD=
EXTT0=
EXTT1=
EXTT2=
EXTT3=
EXTT4=
EXTT5=
EXTT6=
EXTT7=
EXTT8=
EXTT9=
EXTT10=
EXTT11=
EXTT12=
EXTT13=
EXTT14=
PLAYORDER=
